# xmcd CD database file
#
# Track frame offsets:
#	182
#	18467
#	34332
#	58127
#	79845
#	104530
#	123007
#	140240
#	158615
#	177317
#
# Disc length: 2494 seconds
#
# Revision: 3
# Processed by: cddbd v1.5.1PL0 Copyright (c) Steve Scherf et al.
# Submitted via: CDex 1.51
#
DISCID=8609bc0a
DTITLE=Billy Sprague - The Wind and the Wave
DYEAR=1993
DGENRE=Contemporary Christian
TTITLE0=Press On
TTITLE1=Whatever Happened to Love?
TTITLE2=A Way Back
TTITLE3=Mona Lisa Said
TTITLE4=The Blessing (of the Fleet)
TTITLE5=The Sacred Journey
TTITLE6=When Nothing's Sacred
TTITLE7=I Saw a Blind Man
TTITLE8=Kumquat May
TTITLE9=Mona Lisa's Encore
EXTD=YEAR: 1993
EXTT0=
EXTT1=
EXTT2=
EXTT3=
EXTT4=
EXTT5=
EXTT6=
EXTT7=
EXTT8=
EXTT9=
PLAYORDER=
